<?xml version="1.0" encoding="UTF-8" standalone="no" ?>
<!-- Created with Inkscape (http://www.inkscape.org/) -->
<svg
  width="210mm"
  height="210mm"
  viewBox="0 0 210 210"
  version="1.1"
  id="svg1"
  xml:space="preserve"
  inkscape:version="1.4 (86a8ad7, 2024-10-11)"
  sodipodi:docname="icon.svg"
  xmlns:inkscape="http://www.inkscape.org/namespaces/inkscape"
  xmlns:sodipodi="http://sodipodi.sourceforge.net/DTD/sodipodi-0.dtd"
  xmlns="http://www.w3.org/2000/svg"
  xmlns:svg="http://www.w3.org/2000/svg"
>
  <sodipodi:namedview
    id="namedview1"
    pagecolor="#ffffff"
    bordercolor="#000000"
    borderopacity="0.25"
    inkscape:showpageshadow="2"
    inkscape:pageopacity="0.0"
    inkscape:pagecheckerboard="0"
    inkscape:deskcolor="#d1d1d1"
    inkscape:document-units="mm"
    inkscape:zoom="1.0771772"
    inkscape:cx="259.93866"
    inkscape:cy="416.36604"
    inkscape:window-width="1920"
    inkscape:window-height="1057"
    inkscape:window-x="-8"
    inkscape:window-y="-8"
    inkscape:window-maximized="1"
    inkscape:current-layer="layer2"
  />
  <defs id="defs1">
    <filter
      style="color-interpolation-filters: sRGB"
      inkscape:label="Drop Shadow"
      id="filter38"
      x="-0.10961556"
      y="-0.092869632"
      width="1.2261524"
      height="1.1916031"
    >
      <feFlood
        result="flood"
        in="SourceGraphic"
        flood-opacity="1.000000"
        flood-color="rgb(187,43,191)"
        id="feFlood37"
      />
      <feGaussianBlur
        result="blur"
        in="SourceGraphic"
        stdDeviation="5.000000"
        id="feGaussianBlur37"
      />
      <feOffset
        result="offset"
        in="blur"
        dx="1.000000"
        dy="1.000000"
        id="feOffset37"
      />
      <feComposite
        result="comp1"
        operator="in"
        in="offset"
        in2="flood"
        id="feComposite37"
      />
      <feComposite
        result="comp2"
        operator="over"
        in="SourceGraphic"
        in2="comp1"
        id="feComposite38"
      />
    </filter>
  </defs>
  <g
    inkscape:groupmode="layer"
    id="layer2"
    inkscape:label="Sheet"
    style="display: inline"
  >
    <rect
      style="
        display: inline;
        fill: #ffffff;
        fill-opacity: 1;
        stroke: #000000;
        stroke-width: 7.67512;
        stroke-dasharray: none;
        stroke-opacity: 1;
        filter: url(#filter38);
      "
      id="rect1"
      width="144.48277"
      height="170.5354"
      x="31.448088"
      y="18.248085"
      rx="28.68519"
      ry="28.878544"
      inkscape:label="border"
    />
    <path
      style="
        display: inline;
        font-size: 16.9333px;
        fill: #616161;
        stroke: #a3a3a3;
        stroke-width: 0.2;
        stroke-linejoin: bevel;
        font-family: 'Comic Sans MS';
        -inkscape-font-specification: 'Comic Sans MS';
      "
      d="m 54.891336,57.057522 q -1.694984,0 -2.827729,-1.025258 -1.190623,-1.074868 -1.190623,-2.835997 0,-1.678447 1.116209,-3.464381 1.240232,-1.984371 2.794656,-1.984371 0.810285,0 1.810738,0.380337 1.265037,0.487825 1.265037,1.190623 0,0.314192 -0.206705,0.562239 -0.206706,0.239778 -0.512629,0.239778 -0.239779,0 -0.421679,-0.14056 -0.173633,-0.148828 -0.338997,-0.289387 -0.487825,-0.388606 -1.595765,-0.388606 -0.843358,0 -1.670179,1.504814 -0.752408,1.380792 -0.752408,2.389514 0,1.091404 0.74414,1.719788 0.694529,0.587043 1.785934,0.587043 0.496092,0 1.058331,-0.264583 l 0.959113,-0.512629 q 0.248046,-0.132291 0.355533,-0.132291 0.305924,0 0.529165,0.248046 0.223242,0.239778 0.223242,0.553971 0,0.603579 -1.273305,1.165818 -1.116208,0.496092 -1.852079,0.496092 z m 8.061507,-0.03307 q -1.389059,0 -2.389513,-1.025258 -1.116209,-1.141013 -1.174086,-3.067507 -0.04961,-1.868616 0.942576,-3.290749 1.15755,-1.678447 3.224603,-1.678447 1.653643,0 2.505268,1.513083 0.677994,1.223696 0.653189,2.943484 -0.0248,1.835543 -0.959112,3.133653 -1.058332,1.471741 -2.802925,1.471741 z m 0.496093,-7.383514 q -1.215427,-0.0083 -1.893421,1.15755 -0.537433,0.934308 -0.537433,2.133199 0,1.198891 0.653188,1.868616 0.545702,0.55397 1.281573,0.55397 0.859895,0 1.48001,-0.628384 0.702799,-0.69453 0.74414,-1.876884 0.115755,-3.199798 -1.728057,-3.208067 z m 8.408773,7.383514 q -1.38906,0 -2.389514,-1.025258 -1.116209,-1.141013 -1.174086,-3.067507 -0.04961,-1.868616 0.942576,-3.290749 1.15755,-1.678447 3.224603,-1.678447 1.653643,0 2.505269,1.513083 0.677993,1.223696 0.653189,2.943484 -0.02481,1.835543 -0.959113,3.133653 -1.058331,1.471741 -2.802924,1.471741 z m 0.496092,-7.383514 q -1.215427,-0.0083 -1.89342,1.15755 -0.537434,0.934308 -0.537434,2.133199 0,1.198891 0.653189,1.868616 0.545702,0.55397 1.281573,0.55397 0.859894,0 1.48001,-0.628384 0.702798,-0.69453 0.744139,-1.876884 0.115755,-3.199798 -1.728057,-3.208067 z m 12.195614,7.234687 q -0.454751,0 -0.702798,-0.479557 -0.429947,-0.835089 -1.298109,-1.976103 l -1.463474,-1.992639 q -0.479556,0.380338 -1.488278,1.0666 -0.09095,1.281573 -0.09095,2.497 0,0.372069 -0.23151,0.603579 -0.223242,0.23151 -0.578775,0.23151 -0.83509,0 -0.83509,-1.124477 0,-0.686261 0.09095,-2.050516 0.09922,-1.372524 0.09922,-2.058785 0,-1.256769 0.03307,-2.86907 0.04134,-1.62057 0.04134,-2.860802 0,-0.37207 -0.04134,-0.876431 -0.03307,-0.50436 -0.03307,-0.87643 0,-0.37207 0.223242,-0.60358 0.23151,-0.23151 0.587043,-0.23151 0.355533,0 0.578775,0.23151 0.23151,0.23151 0.23151,0.60358 0,0.380338 0.04134,0.901235 0.04134,0.512629 0.04134,0.892967 l -0.05788,2.662365 q -0.04134,1.438669 -0.0248,2.877338 1.124477,-0.859894 2.166272,-1.885153 l 1.819006,-1.876884 q 0.272851,-0.281119 0.587044,-0.281119 0.32246,0 0.578774,0.256314 0.264583,0.256315 0.264583,0.595312 0,0.281119 -0.239778,0.55397 -1.01699,1.190623 -2.505268,2.554878 l 1.80247,2.455659 q 1.265037,1.728056 1.265037,2.248954 0,0.330728 -0.264583,0.570506 -0.256315,0.239779 -0.595312,0.239779 z m 6.118478,0.04134 q -1.868616,0 -3.026166,-0.934308 -1.265036,-1.033527 -1.265036,-2.893875 0,-2.149735 1.041795,-3.604941 1.132745,-1.587497 3.026166,-1.587497 1.372523,0 2.240685,0.46302 1.0666,0.570507 1.0666,1.752861 0,0.826822 -0.934308,1.504815 -0.413411,0.297656 -1.752862,0.92604 l -3.158457,1.496547 q 0.46302,0.686261 1.149282,1.033526 0.69453,0.347265 1.612301,0.347265 0.570507,0 1.339451,-0.214973 0.975649,-0.272851 1.256768,-0.711067 0.281119,-0.446483 0.60358,-0.446483 0.289387,0 0.512629,0.223242 0.23151,0.214973 0.23151,0.504361 0,0.917771 -1.48001,1.579228 -1.265037,0.562239 -2.463928,0.562239 z m -0.223241,-7.532342 q -1.008722,0 -1.678448,0.78548 -0.669725,0.777212 -1.000453,2.348172 l 2.538341,-1.207159 q 1.496546,-0.727602 2.133199,-1.265036 -0.711066,-0.661457 -1.992639,-0.661457 z m 12.071588,1.041795 q -0.0579,1.033526 -0.82682,1.033526 -0.71106,0 -0.71106,-0.818553 0,-0.157096 -0.0248,-0.578775 l -0.0248,-0.69453 q -1.306381,0.157096 -2.091862,0.735871 -0.735871,0.537434 -1.223695,1.62057 l 0.01654,4.530981 q 0,0.835089 -0.818553,0.835089 -0.727603,0 -0.727603,-0.835089 V 50.45122 q 0,-0.272851 0.01654,-0.818553 0.0248,-0.545702 0.0248,-0.818553 0,-0.835089 0.727603,-0.835089 0.810285,0 0.818553,1.372523 1.587497,-1.529619 3.52226,-1.529619 0.66972,0 1.00045,0.50436 0.33073,0.504361 0.33073,1.521352 0,0.429947 -0.008,0.578775 z"
      id="path42"
      inkscape:label="cooker"
    />
    <path
      style="
        display: inline;
        font-size: 16.9333px;
        fill: #616161;
        stroke: #a3a3a3;
        stroke-width: 0.2;
        stroke-linejoin: bevel;
        font-family: 'Comic Sans MS';
        -inkscape-font-specification: 'Comic Sans MS';
      "
      d="m 53.254229,71.940375 -0.124023,4.109301 q 0,0.653189 -0.06614,1.918226 -0.08268,0.826821 -0.810285,0.826821 -0.810285,0 -0.810285,-0.843358 0,-1.000453 0.09095,-3.001361 0.09095,-2.009176 0.09095,-3.009629 0,-1.306378 0.04134,-2.984825 0.04134,-1.686716 0.04134,-2.993093 0,-0.826822 0.810284,-0.826822 0.818554,0 0.818554,0.826822 0,1.306377 -0.04134,2.993093 -0.04134,1.678447 -0.04134,2.984825 z m 4.11757,-3.968743 q -0.396874,0 -0.686261,-0.281119 -0.289388,-0.281119 -0.289388,-0.677993 0,-0.396875 0.289388,-0.677994 0.289387,-0.281119 0.686261,-0.281119 0.396875,0 0.677994,0.281119 0.289387,0.281119 0.289387,0.677994 0,0.396874 -0.289387,0.677993 -0.281119,0.281119 -0.677994,0.281119 z m 0.37207,6.713789 q 0,0.496093 0.02481,1.488279 0.03307,0.983917 0.03307,1.48001 0,0.363801 -0.223241,0.595311 -0.223242,0.23151 -0.587043,0.23151 -0.355534,0 -0.587044,-0.23151 -0.223241,-0.23151 -0.223241,-0.595311 0,-0.496093 -0.03307,-1.48001 -0.0248,-0.992186 -0.0248,-1.488279 0,-0.777212 0.08268,-1.934762 0.08268,-1.165818 0.08268,-1.94303 0,-0.372069 0.223242,-0.603579 0.23151,-0.23151 0.587043,-0.23151 0.355533,0 0.578775,0.23151 0.23151,0.23151 0.23151,0.603579 0,0.777212 -0.08268,1.94303 -0.08268,1.15755 -0.08268,1.934762 z m 9.599395,0.190169 -0.190169,2.77812 q -0.04961,1.653642 -0.338997,2.703705 -0.372069,1.339451 -1.190622,1.976103 -0.992186,0.768944 -2.86907,0.768944 -1.099673,0 -1.843812,-0.148828 -1.041795,-0.206705 -1.041795,-0.859894 0,-0.735871 0.719335,-0.735871 0.297656,0 0.992186,0.14056 0.694529,0.148827 1.537887,0.132291 1.587497,-0.02481 2.191077,-1.537888 0.396874,-1.008721 0.421678,-3.100579 -0.446483,0.826821 -1.066599,1.240232 -0.611848,0.41341 -1.405596,0.41341 -1.496547,0 -2.439123,-1.01699 -0.934308,-1.025258 -0.934308,-2.654096 0,-2.232418 1.281573,-3.596673 1.322914,-1.405596 3.604941,-1.405596 0.768944,0 1.289841,0.198437 0.520897,0.198437 0.793748,0.595311 0.884699,0.02481 0.884699,0.983918 0,0.587043 -0.173632,1.57096 -0.190169,1.141013 -0.223242,1.554424 z m -2.654096,-3.580136 q -1.570961,0 -2.430855,1.083136 -0.768944,0.975649 -0.768944,2.480464 0,1.198891 0.454752,1.80247 0.454752,0.60358 1.364255,0.60358 0.83509,0 1.62057,-0.942577 0.711066,-0.868162 0.810285,-1.719788 0.173632,-0.892967 0.372069,-2.802924 -0.330728,-0.256315 -0.686261,-0.380338 -0.355534,-0.124023 -0.735871,-0.124023 z m 11.757399,7.656365 q -0.587043,0 -0.768944,-0.628384 -0.190169,-0.677994 -0.347265,-1.926494 -0.148828,-1.198891 -0.148828,-1.967834 0,-0.214974 0.01654,-0.653189 0.0248,-0.438215 0.0248,-0.653189 0,-1.554424 -0.777212,-1.554424 -1.050063,0 -1.876884,0.950844 -0.421679,0.487825 -1.15755,1.860348 0,3.150189 -0.264583,3.728964 -0.23151,0.51263 -0.719334,0.51263 -0.338997,0 -0.595312,-0.23151 -0.256314,-0.23151 -0.256314,-0.562239 0,-0.115755 0.07441,-0.363801 0.06614,-0.206706 0.09095,-1.207159 l 0.02481,-1.223696 0.0248,-6.077136 q 0.05788,-1.025259 0.05788,-1.380792 0,-0.421679 -0.08268,-0.793748 -0.07441,-0.380338 -0.07441,-0.785481 0,-0.347264 0.239778,-0.570506 0.239778,-0.23151 0.587043,-0.23151 0.677994,0 0.793749,0.727603 0.132291,0.802016 0.132291,1.446937 0,0.868162 -0.05788,1.810738 -0.04961,0.901236 -0.04134,1.810739 l 0.0083,0.727603 q 0.677993,-0.909504 1.446937,-1.355987 0.777212,-0.454752 1.645374,-0.454752 1.372524,0 1.885153,0.892967 0.363801,0.628384 0.41341,2.116663 l 0.06615,1.579228 0.165364,1.719789 q 0.115755,0.967381 0.28112,1.703251 0.03307,0.14056 0.03307,0.239779 0,0.338996 -0.248047,0.562238 -0.248046,0.23151 -0.595311,0.23151 z m 8.392236,-7.557146 q -0.173633,0 -0.413411,-0.01654 -0.23151,-0.01654 -0.405142,-0.01654 -0.190169,0 -1.124477,0.124023 l 0.157096,4.886514 0.0083,0.363801 0.0083,0.421679 q 0.03307,1.810739 -0.868162,1.810739 -0.330729,0 -0.578775,-0.214974 -0.239778,-0.214974 -0.239778,-0.537434 0,-0.314192 0.0248,-0.942576 0.02481,-0.628384 0.02481,-0.942576 l -0.165364,-4.828637 q -0.60358,-0.0248 -1.835543,-0.140559 -0.735871,-0.09922 -0.735871,-0.818553 0,-0.363802 0.223241,-0.60358 0.223242,-0.239778 0.570507,-0.239778 l 1.736325,0.140559 q 0,-0.421678 -0.04134,-1.124476 -0.03307,-0.711067 -0.03307,-1.025259 0,-0.347265 0.239778,-0.570507 0.239778,-0.23151 0.587043,-0.23151 0.744139,0 0.868162,1.215428 0.02481,0.305924 0.02481,0.735871 l -0.01654,0.479556 -0.0083,0.512629 q 1.025259,-0.132291 1.174087,-0.132291 0.859894,0 1.124477,0.08268 0.504361,0.165364 0.504361,0.777212 0,0.363801 -0.23151,0.60358 -0.223242,0.23151 -0.578775,0.23151 z m 6.308647,7.424855 q -1.868616,0 -3.026166,-0.934308 -1.265036,-1.033527 -1.265036,-2.893875 0,-2.149735 1.041795,-3.604941 1.132745,-1.587497 3.026166,-1.587497 1.372523,0 2.240685,0.46302 1.0666,0.570507 1.0666,1.752861 0,0.826822 -0.934308,1.504815 -0.413411,0.297656 -1.752861,0.92604 l -3.158458,1.496547 q 0.46302,0.686261 1.149282,1.033526 0.69453,0.347265 1.612301,0.347265 0.570507,0 1.339451,-0.214973 0.975649,-0.272851 1.256768,-0.711067 0.281119,-0.446483 0.60358,-0.446483 0.289387,0 0.512629,0.223242 0.23151,0.214973 0.23151,0.504361 0,0.917771 -1.48001,1.579228 -1.265037,0.562239 -2.463928,0.562239 z m -0.223241,-7.532342 q -1.008722,0 -1.678448,0.78548 -0.669725,0.777212 -1.000453,2.348172 l 2.538341,-1.207159 q 1.496546,-0.727602 2.133199,-1.265036 -0.711066,-0.661457 -1.992639,-0.661457 z m 12.071591,1.041795 q -0.0579,1.033526 -0.82682,1.033526 -0.71107,0 -0.71107,-0.818553 0,-0.157096 -0.0248,-0.578775 l -0.0248,-0.69453 q -1.30637,0.157096 -2.091855,0.735871 -0.735871,0.537434 -1.223695,1.62057 l 0.01654,4.530981 q 0,0.835089 -0.818553,0.835089 -0.727603,0 -0.727603,-0.835089 v -5.804286 q 0,-0.272851 0.01654,-0.818553 0.02481,-0.545702 0.02481,-0.818553 0,-0.835089 0.727602,-0.835089 0.810285,0 0.818553,1.372523 1.587497,-1.52962 3.522263,-1.52962 0.66972,0 1.00045,0.504361 0.33073,0.504361 0.33073,1.521352 0,0.429947 -0.008,0.578775 z"
      id="path43"
      inkscape:label="lighter"
    />
    <path
      style="
        display: inline;
        font-size: 16.9333px;
        fill: #616161;
        stroke: #a3a3a3;
        stroke-width: 0.2;
        stroke-linejoin: bevel;
        font-family: 'Comic Sans MS';
        -inkscape-font-specification: 'Comic Sans MS';
      "
      d="m 56.685538,93.297237 q -0.173633,0 -0.413411,-0.01654 -0.23151,-0.01654 -0.405142,-0.01654 -0.190169,0 -1.124477,0.124023 l 0.157096,4.886514 0.0083,0.363801 0.0083,0.421679 q 0.03307,1.810738 -0.868162,1.810738 -0.330729,0 -0.578775,-0.21497 -0.239778,-0.21498 -0.239778,-0.53744 0,-0.314189 0.0248,-0.942573 0.02481,-0.628384 0.02481,-0.942576 L 53.11367,93.404724 q -0.60358,-0.0248 -1.835543,-0.140559 -0.735871,-0.09922 -0.735871,-0.818553 0,-0.363802 0.223241,-0.60358 0.223242,-0.239778 0.570507,-0.239778 l 1.736325,0.140559 q 0,-0.421678 -0.04134,-1.124476 -0.03307,-0.711067 -0.03307,-1.025259 0,-0.347265 0.239778,-0.570507 0.239778,-0.23151 0.587043,-0.23151 0.744139,0 0.868162,1.215428 0.02481,0.305924 0.02481,0.735871 l -0.01654,0.479556 -0.0083,0.512629 q 1.025259,-0.132291 1.174087,-0.132291 0.859894,0 1.124477,0.08268 0.504361,0.165364 0.504361,0.777212 0,0.363801 -0.23151,0.60358 -0.223242,0.231509 -0.578775,0.231509 z m 6.308646,7.424853 q -1.868616,0 -3.026166,-0.934305 -1.265036,-1.033527 -1.265036,-2.893875 0,-2.149735 1.041795,-3.604941 1.132745,-1.587497 3.026166,-1.587497 1.372523,0 2.240685,0.46302 1.0666,0.570507 1.0666,1.752861 0,0.826822 -0.934308,1.504815 -0.413411,0.297656 -1.752861,0.92604 l -3.158458,1.496547 q 0.46302,0.686261 1.149282,1.033526 0.69453,0.347265 1.612301,0.347265 0.570507,0 1.339451,-0.214973 0.975649,-0.272851 1.256768,-0.711067 0.281119,-0.446483 0.60358,-0.446483 0.289387,0 0.512629,0.223242 0.23151,0.214973 0.23151,0.504361 0,0.917771 -1.48001,1.579224 -1.265037,0.56224 -2.463928,0.56224 z m -0.223241,-7.532339 q -1.008722,0 -1.678448,0.78548 -0.669725,0.777212 -1.000453,2.348172 l 2.538341,-1.207159 q 1.496547,-0.727602 2.133199,-1.265036 -0.711066,-0.661457 -1.992639,-0.661457 z m 11.98064,7.739049 q -0.711066,0 -0.802017,-0.77721 l -0.23151,-1.810743 q -0.115755,-0.967381 -0.115755,-1.810738 0,-0.23151 0.02481,-0.78548 0.03307,-0.553971 0.03307,-0.785481 0,-1.785934 -0.661457,-1.785934 -0.92604,0 -1.769398,1.099673 -0.760675,1.000453 -1.190622,2.530073 -0.01654,0.32246 -0.07441,0.810285 -0.04961,0.41341 -0.04961,0.802016 0,0.248047 0.04961,0.744139 0.04961,0.496093 0.04961,0.74414 0,0.37207 -0.23151,0.60358 -0.223242,0.23151 -0.578775,0.23151 -0.363801,0 -0.587043,-0.23151 -0.223242,-0.23151 -0.223242,-0.60358 0,-0.248047 -0.05788,-0.74414 -0.04961,-0.496092 -0.04961,-0.744139 0,-0.851626 0.115755,-2.35644 0.124024,-1.513083 0.124024,-2.364709 0,-0.264583 -0.03307,-0.785481 -0.02481,-0.520897 -0.02481,-0.78548 0,-0.355533 0.23151,-0.578775 0.239778,-0.23151 0.587043,-0.23151 0.760676,0 0.83509,1.074868 l 0.0248,0.967381 q 1.38906,-1.85208 2.852534,-1.85208 1.322914,0 1.843811,1.165818 0.355533,0.777212 0.388606,2.298563 v 0.83509 l -0.0083,0.768944 q 0,0.686261 0.173632,1.777666 0.181901,1.083135 0.181901,1.761124 0,0.36381 -0.239778,0.58705 -0.23151,0.23151 -0.587043,0.23151 z m 8.05324,-7.631563 q -0.173632,0 -0.41341,-0.01654 -0.23151,-0.01654 -0.405143,-0.01654 -0.190169,0 -1.124477,0.124023 l 0.157096,4.886514 0.0083,0.363801 0.0083,0.421679 q 0.03307,1.810738 -0.868163,1.810738 -0.330728,0 -0.578774,-0.21497 -0.239779,-0.21498 -0.239779,-0.53744 0,-0.314189 0.02481,-0.942573 0.02481,-0.628384 0.02481,-0.942576 l -0.165365,-4.828637 q -0.603579,-0.0248 -1.835543,-0.140559 -0.735871,-0.09922 -0.735871,-0.818553 0,-0.363802 0.223242,-0.60358 0.223242,-0.239778 0.570507,-0.239778 l 1.736324,0.140559 q 0,-0.421678 -0.04134,-1.124476 -0.03307,-0.711067 -0.03307,-1.025259 0,-0.347265 0.239779,-0.570507 0.239778,-0.23151 0.587043,-0.23151 0.744139,0 0.868162,1.215428 0.02481,0.305924 0.02481,0.735871 l -0.01654,0.479556 -0.0083,0.512629 q 1.025258,-0.132291 1.174086,-0.132291 0.859894,0 1.124477,0.08268 0.504361,0.165364 0.504361,0.777212 0,0.363801 -0.23151,0.60358 -0.223241,0.231509 -0.578775,0.231509 z"
      id="path44"
      inkscape:label="tent"
    />
    <path
      style="
        display: inline;
        font-size: 16.9333px;
        fill: #616161;
        stroke: #a3a3a3;
        stroke-width: 0.2;
        stroke-linejoin: bevel;
        font-family: 'Comic Sans MS';
        -inkscape-font-specification: 'Comic Sans MS';
      "
      d="m 56.735147,115.8778 q -0.454752,0 -0.636652,-0.30593 -0.124024,-0.21497 -0.214974,-0.89296 -0.620116,0.15709 -1.909957,0.57877 -1.331182,0.52917 -1.339451,1.30638 0.248047,0.091 0.487825,0.13229 1.901689,0.339 2.827729,0.93431 1.347719,0.86816 1.347719,2.51353 0,1.34772 -1.165818,2.03398 -0.967381,0.56224 -2.447391,0.56224 -1.083136,0 -2.067054,-0.3638 -1.273304,-0.46302 -1.273304,-1.28984 0,-0.33073 0.256314,-0.57877 0.264583,-0.24805 0.595311,-0.24805 0.256315,0 0.661457,0.39687 0.198438,0.19017 0.892967,0.3142 0.553971,0.0992 0.934309,0.0992 0.694529,0 1.223695,-0.16536 0.768944,-0.23978 0.768944,-0.76068 0,-1.12447 -1.570961,-1.52135 l -0.859894,-0.19017 q -1.099672,-0.23977 -1.562692,-0.56223 -0.669725,-0.46302 -0.669725,-1.39733 0,-1.72806 1.628838,-2.46393 0.496092,-0.22324 1.587497,-0.52917 1.091404,-0.31419 1.562692,-0.52916 0.338997,-0.14883 0.735871,-0.14883 0.355533,0 0.578775,0.23151 0.23151,0.23151 0.23151,0.60358 0,0.23978 0.09922,0.7028 0.107487,0.46302 0.107487,0.7028 0,0.37207 -0.23151,0.60358 -0.223242,0.23151 -0.578775,0.23151 z m 4.762491,-0.1323 -0.124024,4.10931 q 0,0.65319 -0.06615,1.91822 -0.08268,0.82682 -0.810285,0.82682 -0.810285,0 -0.810285,-0.84335 0,-1.00046 0.09095,-3.00137 0.09095,-2.00917 0.09095,-3.00963 0,-1.30637 0.04134,-2.98482 0.04134,-1.68672 0.04134,-2.99309 0,-0.82682 0.810285,-0.82682 0.818553,0 0.818553,0.82682 0,1.30637 -0.04134,2.99309 -0.04134,1.67845 -0.04134,2.98482 z m 6.399597,6.87916 q -1.868616,0 -3.026166,-0.93431 -1.265037,-1.03353 -1.265037,-2.89387 0,-2.14974 1.041795,-3.60495 1.132745,-1.58749 3.026166,-1.58749 1.372523,0 2.240686,0.46302 1.066599,0.5705 1.066599,1.75286 0,0.82682 -0.934308,1.50481 -0.413411,0.29766 -1.752861,0.92604 l -3.158457,1.49655 q 0.46302,0.68626 1.149281,1.03353 0.69453,0.34726 1.612302,0.34726 0.570506,0 1.33945,-0.21497 0.975649,-0.27285 1.256769,-0.71107 0.281119,-0.44648 0.603579,-0.44648 0.289388,0 0.512629,0.22324 0.23151,0.21497 0.23151,0.50436 0,0.91777 -1.48001,1.57923 -1.265036,0.56224 -2.463927,0.56224 z m -0.223242,-7.53234 q -1.008722,0 -1.678447,0.78548 -0.669725,0.77721 -1.000454,2.34817 l 2.538341,-1.20716 q 1.496547,-0.7276 2.133199,-1.26504 -0.711066,-0.66145 -1.992639,-0.66145 z m 9.500175,7.53234 q -1.868616,0 -3.026165,-0.93431 -1.265037,-1.03353 -1.265037,-2.89387 0,-2.14974 1.041795,-3.60495 1.132745,-1.58749 3.026166,-1.58749 1.372523,0 2.240685,0.46302 1.0666,0.5705 1.0666,1.75286 0,0.82682 -0.934308,1.50481 -0.413411,0.29766 -1.752861,0.92604 l -3.158458,1.49655 q 0.46302,0.68626 1.149282,1.03353 0.69453,0.34726 1.612301,0.34726 0.570507,0 1.339451,-0.21497 0.975649,-0.27285 1.256768,-0.71107 0.28112,-0.44648 0.60358,-0.44648 0.289387,0 0.512629,0.22324 0.23151,0.21497 0.23151,0.50436 0,0.91777 -1.48001,1.57923 -1.265037,0.56224 -2.463928,0.56224 z m -0.223241,-7.53234 q -1.008722,0 -1.678448,0.78548 -0.669725,0.77721 -1.000453,2.34817 l 2.538341,-1.20716 q 1.496547,-0.7276 2.133199,-1.26504 -0.711066,-0.66145 -1.992639,-0.66145 z m 9.152912,7.44139 q -0.826821,0 -1.819007,-0.26459 l -0.01654,3.95221 q 0,0.3638 -0.23151,0.59531 -0.223242,0.23151 -0.578775,0.23151 -0.355533,0 -0.587043,-0.23151 -0.223242,-0.23151 -0.223242,-0.59531 l 0.02481,-3.30728 v -3.29902 q -0.02481,-1.81074 -0.124023,-3.29902 l -0.124024,-1.67845 q 0,-0.58704 0.214974,-0.99218 0.248046,-0.48783 0.719334,-0.48783 0.322461,0 0.537434,0.23151 0.223242,0.22325 0.223242,0.55397 0,0.0744 -0.02481,0.27286 -0.04134,0.25631 -0.05788,0.47128 0.711066,-0.48782 1.372523,-0.7276 0.661457,-0.24805 1.265037,-0.24805 1.694983,0 2.480464,1.50482 0.620116,1.19062 0.620116,3.15019 0,1.78593 -0.959113,2.94348 -1.01699,1.2237 -2.711974,1.2237 z m 0.570507,-7.16854 q -0.760676,0 -1.372524,0.33899 -0.438215,0.23978 -1.10794,0.87643 0.107487,1.87689 0.107487,3.94394 0.901235,0.34727 1.80247,0.34727 1.033527,0 1.579229,-0.76895 0.471288,-0.66972 0.471288,-1.73632 0,-1.50482 -0.37207,-2.24896 -0.363801,-0.7524 -1.10794,-0.7524 z m 6.548423,-3.58841 q -0.396874,0 -0.686262,-0.28112 -0.289387,-0.28112 -0.289387,-0.67799 0,-0.39687 0.289387,-0.67799 0.289388,-0.28112 0.686262,-0.28112 0.396874,0 0.677994,0.28112 0.289387,0.28112 0.289387,0.67799 0,0.39687 -0.289387,0.67799 -0.28112,0.28112 -0.677994,0.28112 z m 0.37207,6.71379 q 0,0.49609 0.0248,1.48828 0.03307,0.98392 0.03307,1.48001 0,0.3638 -0.223242,0.59531 -0.223241,0.23151 -0.587043,0.23151 -0.355533,0 -0.587043,-0.23151 -0.223242,-0.23151 -0.223242,-0.59531 0,-0.49609 -0.03307,-1.48001 -0.0248,-0.99219 -0.0248,-1.48828 0,-0.77721 0.08268,-1.93476 0.08268,-1.16582 0.08268,-1.94303 0,-0.37207 0.223242,-0.60358 0.23151,-0.23151 0.587043,-0.23151 0.355533,0 0.578775,0.23151 0.23151,0.23151 0.23151,0.60358 0,0.77721 -0.08268,1.94303 -0.08268,1.15755 -0.08268,1.93476 z m 9.136371,4.34081 q -0.71106,0 -0.80201,-0.77721 l -0.23151,-1.81074 q -0.11576,-0.96738 -0.11576,-1.81074 0,-0.23151 0.0248,-0.78548 0.0331,-0.55397 0.0331,-0.78548 0,-1.78593 -0.66146,-1.78593 -0.92604,0 -1.769396,1.09967 -0.760676,1.00046 -1.190623,2.53007 -0.01654,0.32247 -0.07441,0.81029 -0.04961,0.41341 -0.04961,0.80202 0,0.24804 0.04961,0.74414 0.04961,0.49609 0.04961,0.74413 0,0.37207 -0.23151,0.60358 -0.223241,0.23151 -0.578774,0.23151 -0.363802,0 -0.587044,-0.23151 -0.223241,-0.23151 -0.223241,-0.60358 0,-0.24804 -0.05788,-0.74413 -0.04961,-0.4961 -0.04961,-0.74414 0,-0.85163 0.115755,-2.35644 0.124023,-1.51309 0.124023,-2.36471 0,-0.26459 -0.03307,-0.78548 -0.0248,-0.5209 -0.0248,-0.78548 0,-0.35554 0.23151,-0.57878 0.239778,-0.23151 0.587043,-0.23151 0.760675,0 0.835089,1.07487 l 0.02481,0.96738 q 1.38906,-1.85208 2.852532,-1.85208 1.32292,0 1.84381,1.16582 0.35554,0.77721 0.38861,2.29856 v 0.83509 l -0.008,0.76894 q 0,0.68627 0.17363,1.77767 0.1819,1.08314 0.1819,1.76113 0,0.3638 -0.23977,0.58704 -0.23151,0.23151 -0.58705,0.23151 z m 9.32655,-4.15064 -0.19017,2.77812 q -0.0496,1.65364 -0.339,2.70371 -0.37207,1.33945 -1.19062,1.9761 -0.99219,0.76894 -2.86907,0.76894 -1.09967,0 -1.84381,-0.14883 -1.0418,-0.2067 -1.0418,-0.85989 0,-0.73587 0.71934,-0.73587 0.29765,0 0.99218,0.14056 0.69453,0.14883 1.53789,0.13229 1.5875,-0.0248 2.19108,-1.53789 0.39687,-1.00872 0.42168,-3.10058 -0.44649,0.82682 -1.0666,1.24023 -0.61185,0.41342 -1.4056,0.41342 -1.49655,0 -2.43912,-1.01699 -0.93431,-1.02526 -0.93431,-2.6541 0,-2.23242 1.28157,-3.59667 1.32292,-1.4056 3.60494,-1.4056 0.76895,0 1.28984,0.19844 0.5209,0.19843 0.79375,0.59531 0.8847,0.0248 0.8847,0.98392 0,0.58704 -0.17363,1.57096 -0.19017,1.14101 -0.22324,1.55442 z m -2.6541,-3.58014 q -1.57096,0 -2.43085,1.08314 -0.76895,0.97565 -0.76895,2.48046 0,1.19889 0.45475,1.80247 0.45476,0.60358 1.36426,0.60358 0.83509,0 1.62057,-0.94257 0.71107,-0.86816 0.81028,-1.71979 0.17364,-0.89297 0.37207,-2.80293 -0.33072,-0.25631 -0.68626,-0.38033 -0.35553,-0.12403 -0.73587,-0.12403 z m 13.75831,7.491 q -1.26504,0 -2.29857,-0.49609 -0.26458,0.39688 -0.64492,0.39688 -0.31419,0 -0.53743,-0.22325 -0.21498,-0.21497 -0.21498,-0.5457 0,-0.21497 0.0165,-0.63665 0.0248,-0.42168 0.0248,-0.63665 0,-0.87643 -0.0496,-2.62103 -0.0413,-1.75286 -0.0413,-2.62929 0,-0.60358 0.008,-2.28202 0.008,-1.68672 0.008,-2.29857 0,-0.49609 0.20671,-0.89296 0.27285,-0.50437 0.7524,-0.50437 0.62012,0 0.62012,0.71934 0,0.11575 -0.0413,0.339 -0.0413,0.22324 -0.0413,0.33899 l -0.0248,1.81074 -0.0165,2.1084 q 0.71933,-0.48783 1.36425,-0.72761 0.65319,-0.24804 1.2237,-0.24804 1.77766,0 2.8856,1.36425 1.0418,1.28157 1.0418,3.15019 0,1.88515 -1.21543,3.1998 -1.21543,1.31464 -3.02616,1.31464 z m 0.31419,-7.46619 q -0.678,0 -1.38906,0.38034 -0.34727,0.19017 -1.19063,0.81855 l -0.0165,1.4304 0.008,1.28984 0.008,1.35599 q 0.39688,0.1819 1.11621,0.46302 0.51263,0.15709 1.14929,0.15709 1.19889,0 1.96783,-0.84335 0.76894,-0.84336 0.76894,-2.10013 0,-1.23196 -0.62011,-2.05878 -0.66973,-0.89297 -1.80247,-0.89297 z m 12.32791,7.66463 q -0.1571,0 -0.57051,-0.3638 -0.37207,-0.339 -0.55397,-0.60358 -0.79375,0.42995 -1.39733,0.64492 -0.60358,0.22324 -1.00872,0.22324 -1.93476,0 -2.81946,-1.0914 -0.83509,-1.02526 -0.83509,-3.14192 0,-2.00091 1.37252,-3.42304 1.3808,-1.42213 3.29075,-1.42213 0.71934,0 1.6123,0.37207 1.12448,0.46302 1.12448,1.1162 0,0.22325 -0.16536,0.39688 -0.0827,0.31419 -0.13229,1.03352 -0.0414,0.71934 -0.0496,1.84382 -0.008,1.02525 0.14056,1.62057 0.0827,0.3638 0.52089,1.4552 0.0579,0.14883 0.19017,0.43822 l 0.0496,0.14056 q 0,0.33072 -0.23151,0.5457 -0.23151,0.21497 -0.53743,0.21497 z m -1.71979,-5.74641 q 0,-0.35553 0.0413,-0.76894 0.0496,-0.42168 0.14056,-0.89297 -0.30592,-0.15709 -0.52917,-0.23151 -0.21497,-0.0744 -0.34726,-0.0744 -1.28157,0 -2.21588,1.05006 -0.92604,1.0418 -0.92604,2.40605 0,1.35599 0.47955,2.03398 0.47956,0.678 1.43867,0.678 0.79375,0 1.34772,-0.28939 0.29766,-0.1571 0.83509,-0.62839 -0.26458,-2.19107 -0.26458,-3.28248 z m 10.73214,1.63711 -0.19017,2.77812 q -0.0496,1.65364 -0.339,2.70371 -0.37207,1.33945 -1.19062,1.9761 -0.99219,0.76894 -2.86907,0.76894 -1.09967,0 -1.84381,-0.14883 -1.0418,-0.2067 -1.0418,-0.85989 0,-0.73587 0.71934,-0.73587 0.29765,0 0.99218,0.14056 0.69453,0.14883 1.53789,0.13229 1.5875,-0.0248 2.19108,-1.53789 0.39687,-1.00872 0.42168,-3.10058 -0.44649,0.82682 -1.0666,1.24023 -0.61185,0.41342 -1.4056,0.41342 -1.49655,0 -2.43912,-1.01699 -0.93431,-1.02526 -0.93431,-2.6541 0,-2.23242 1.28157,-3.59667 1.32292,-1.4056 3.60494,-1.4056 0.76895,0 1.28984,0.19844 0.5209,0.19843 0.79375,0.59531 0.8847,0.0248 0.8847,0.98392 0,0.58704 -0.17363,1.57096 -0.19017,1.14101 -0.22324,1.55442 z m -2.6541,-3.58014 q -1.57096,0 -2.43085,1.08314 -0.76895,0.97565 -0.76895,2.48046 0,1.19889 0.45475,1.80247 0.45476,0.60358 1.36426,0.60358 0.83509,0 1.62057,-0.94257 0.71107,-0.86816 0.81028,-1.71979 0.17364,-0.89297 0.37207,-2.80293 -0.33073,-0.25631 -0.68626,-0.38033 -0.35553,-0.12403 -0.73587,-0.12403 z"
      id="path45"
      inkscape:label="sleeping bag"
    />
    <path
      style="
        display: inline;
        font-size: 16.9333px;
        fill: #616161;
        stroke: #a3a3a3;
        stroke-width: 0.2;
        stroke-linejoin: bevel;
        font-family: 'Comic Sans MS';
        -inkscape-font-specification: 'Comic Sans MS';
      "
      d="m 61.654734,144.83315 q -0.677994,0 -0.793749,-0.71934 -0.148828,-0.9095 -0.297655,-2.56314 l -0.28112,-2.56315 q -0.08268,-0.57051 -0.281119,-1.11621 -0.281119,-0.74414 -0.611848,-0.74414 -0.305923,0 -1.141013,0.5209 -0.793748,0.47956 -1.041795,0.76894 -0.0083,0.77722 0.04134,1.55443 l 0.248047,2.20761 q 0.157096,1.30638 0.157096,2.158 0,0.36381 -0.23151,0.59532 -0.223242,0.23977 -0.578775,0.23977 -0.355533,0 -0.587043,-0.23977 -0.223242,-0.23151 -0.223242,-0.59532 0,-1.00045 -0.206705,-2.95175 -0.198437,-1.95956 -0.198437,-2.96002 0,-0.87643 -0.248047,-1.36425 -0.578775,0.26458 -1.174086,0.85989 l -0.975649,1.0914 q -0.132292,0.19844 -0.421679,0.5209 0,0.49609 -0.09095,1.46348 -0.09095,0.96738 -0.09095,1.4304 0,0.24804 0.07441,0.69453 0.08268,0.44648 0.08268,0.64492 0,0.33899 -0.256314,0.5705 -0.248047,0.23151 -0.587043,0.23151 -0.934308,0 -0.934308,-2.12493 0,-0.49609 0.09095,-1.48001 0.09095,-0.98391 0.09095,-1.48001 0,-0.43821 -0.08268,-1.31464 -0.07441,-0.87643 -0.07441,-1.32292 0,-1.87688 0.843358,-1.87688 0.32246,0 0.587043,0.28112 0.272851,0.28112 0.272851,0.61185 0,0.15709 -0.04134,0.48782 -0.04134,0.33073 -0.04134,0.50436 l 0.01654,0.86816 q 0.429947,-0.8847 1.265037,-1.59576 0.835089,-0.71934 1.422133,-0.71934 1.298109,0 1.785934,1.28985 0.454751,-0.60358 1.083135,-0.90124 0.628385,-0.30592 1.438669,-0.30592 1.380792,0 1.885153,1.48827 0.09922,0.29766 0.338997,2.32337 0.23151,1.42213 0.595311,4.73769 0.02481,0.33073 -0.223242,0.56224 -0.248046,0.23151 -0.603579,0.23151 z m 9.111571,-0.14056 q -0.157096,0 -0.570507,-0.3638 -0.37207,-0.339 -0.55397,-0.60358 -0.793749,0.42994 -1.397328,0.64492 -0.60358,0.22324 -1.008722,0.22324 -1.934762,0 -2.819461,-1.09141 -0.835089,-1.02525 -0.835089,-3.14192 0,-2.0009 1.372523,-3.42304 1.380792,-1.42213 3.290749,-1.42213 0.719334,0 1.612301,0.37207 1.124477,0.46302 1.124477,1.11621 0,0.22324 -0.165364,0.39687 -0.08268,0.3142 -0.132292,1.03353 -0.04134,0.71933 -0.04961,1.84381 -0.0083,1.02526 0.14056,1.62057 0.08268,0.3638 0.520897,1.45521 0.05788,0.14882 0.190169,0.43821 l 0.04961,0.14056 q 0,0.33073 -0.23151,0.5457 -0.231509,0.21498 -0.537433,0.21498 z m -1.719789,-5.74641 q 0,-0.35553 0.04134,-0.76894 0.04961,-0.42168 0.14056,-0.89297 -0.305924,-0.1571 -0.529166,-0.23151 -0.214973,-0.0744 -0.347265,-0.0744 -1.281573,0 -2.215881,1.05007 -0.926039,1.04179 -0.926039,2.40605 0,1.35598 0.479556,2.03398 0.479556,0.67799 1.438669,0.67799 0.793748,0 1.347719,-0.28939 0.297655,-0.15709 0.835089,-0.62838 -0.264583,-2.19108 -0.264583,-3.28248 z m 9.458835,-1.84381 q -0.173633,0 -0.413411,-0.0165 -0.23151,-0.0165 -0.405143,-0.0165 -0.190168,0 -1.124476,0.12403 l 0.157096,4.88651 0.0083,0.3638 0.0083,0.42168 q 0.03307,1.81074 -0.868162,1.81074 -0.330729,0 -0.578775,-0.21497 -0.239778,-0.21498 -0.239778,-0.53744 0,-0.31419 0.0248,-0.94257 0.02481,-0.62839 0.02481,-0.94258 l -0.165364,-4.82864 q -0.60358,-0.0248 -1.835544,-0.14056 -0.735871,-0.0992 -0.735871,-0.81855 0,-0.3638 0.223242,-0.60358 0.223242,-0.23978 0.570507,-0.23978 l 1.736325,0.14056 q 0,-0.42168 -0.04134,-1.12447 -0.03307,-0.71107 -0.03307,-1.02526 0,-0.34727 0.239778,-0.57051 0.239778,-0.23151 0.587043,-0.23151 0.744139,0 0.868162,1.21543 0.02481,0.30592 0.02481,0.73587 l -0.01654,0.47956 -0.0083,0.51263 q 1.025259,-0.1323 1.174086,-0.1323 0.859895,0 1.124477,0.0827 0.504361,0.16536 0.504361,0.77721 0,0.3638 -0.23151,0.60358 -0.223241,0.23151 -0.578774,0.23151 z m 6.184624,7.56541 q -1.694984,0 -2.827729,-1.02526 -1.190623,-1.07486 -1.190623,-2.83599 0,-1.67845 1.116209,-3.46438 1.240232,-1.98438 2.794656,-1.98438 0.810285,0 1.810739,0.38034 1.265036,0.48783 1.265036,1.19062 0,0.3142 -0.206705,0.56224 -0.206705,0.23978 -0.512629,0.23978 -0.239778,0 -0.421679,-0.14056 -0.173633,-0.14883 -0.338997,-0.28939 -0.487824,-0.3886 -1.595765,-0.3886 -0.843358,0 -1.670179,1.50481 -0.752407,1.38079 -0.752407,2.38952 0,1.0914 0.744139,1.71979 0.69453,0.58704 1.785934,0.58704 0.496093,0 1.058331,-0.26458 l 0.959113,-0.51263 q 0.248046,-0.1323 0.355533,-0.1323 0.305924,0 0.529166,0.24805 0.223241,0.23978 0.223241,0.55397 0,0.60358 -1.273304,1.16582 -1.116209,0.49609 -1.85208,0.49609 z m 11.881422,-0.008 q -0.587043,0 -0.768944,-0.62838 -0.190169,-0.67799 -0.347265,-1.92649 -0.148828,-1.19889 -0.148828,-1.96784 0,-0.21497 0.01654,-0.65319 0.02481,-0.43821 0.02481,-0.65319 0,-1.55442 -0.777212,-1.55442 -1.050064,0 -1.876885,0.95084 -0.421679,0.48783 -1.15755,1.86035 0,3.15019 -0.264582,3.72897 -0.23151,0.51263 -0.719335,0.51263 -0.338997,0 -0.595311,-0.23151 -0.256315,-0.23151 -0.256315,-0.56224 0,-0.11576 0.07441,-0.3638 0.06615,-0.20671 0.09095,-1.20716 l 0.02481,-1.2237 0.02481,-6.07714 q 0.05788,-1.02525 0.05788,-1.38079 0,-0.42168 -0.08268,-0.79375 -0.07441,-0.38033 -0.07441,-0.78548 0,-0.34726 0.239778,-0.5705 0.239778,-0.23151 0.587043,-0.23151 0.677994,0 0.793749,0.7276 0.132291,0.80202 0.132291,1.44694 0,0.86816 -0.05788,1.81074 -0.04961,0.90123 -0.04134,1.81074 l 0.0083,0.7276 q 0.677993,-0.90951 1.446937,-1.35599 0.777212,-0.45475 1.645375,-0.45475 1.372523,0 1.885152,0.89297 0.363801,0.62838 0.413411,2.11666 l 0.06615,1.57923 0.165365,1.71979 q 0.115755,0.96738 0.281119,1.70325 0.03307,0.14056 0.03307,0.23978 0,0.33899 -0.248047,0.56223 -0.248046,0.23151 -0.595311,0.23151 z m 6.722053,-0.13229 q -1.86861,0 -3.02616,-0.93431 -1.265038,-1.03352 -1.265038,-2.89387 0,-2.14974 1.041798,-3.60494 1.13274,-1.5875 3.02616,-1.5875 1.37253,0 2.24069,0.46302 1.0666,0.57051 1.0666,1.75286 0,0.82682 -0.93431,1.50482 -0.41341,0.29765 -1.75286,0.92604 l -3.15846,1.49654 q 0.46302,0.68627 1.14928,1.03353 0.69453,0.34727 1.6123,0.34727 0.57051,0 1.33945,-0.21498 0.97565,-0.27285 1.25677,-0.71106 0.28112,-0.44649 0.60358,-0.44649 0.28939,0 0.51263,0.22324 0.23151,0.21498 0.23151,0.50437 0,0.91777 -1.48001,1.57922 -1.26504,0.56224 -2.46393,0.56224 z m -0.22324,-7.53234 q -1.00872,0 -1.67844,0.78548 -0.66973,0.77721 -1.00046,2.34817 l 2.53834,-1.20716 q 1.49655,-0.7276 2.1332,-1.26503 -0.71106,-0.66146 -1.99264,-0.66146 z m 11.21997,0.78548 q -0.45475,0 -0.63665,-0.30592 -0.12403,-0.21498 -0.21498,-0.89297 -0.62011,0.1571 -1.90996,0.57877 -1.33118,0.52917 -1.33945,1.30638 0.24805,0.0909 0.48783,0.13229 1.90169,0.339 2.82773,0.93431 1.34772,0.86816 1.34772,2.51354 0,1.34772 -1.16582,2.03398 -0.96738,0.56224 -2.44739,0.56224 -1.08314,0 -2.06706,-0.3638 -1.2733,-0.46302 -1.2733,-1.28984 0,-0.33073 0.25631,-0.57878 0.26459,-0.24805 0.59532,-0.24805 0.25631,0 0.66145,0.39688 0.19844,0.19017 0.89297,0.31419 0.55397,0.0992 0.93431,0.0992 0.69453,0 1.22369,-0.16537 0.76895,-0.23977 0.76895,-0.76067 0,-1.12448 -1.57096,-1.52135 l -0.8599,-0.19017 q -1.09967,-0.23978 -1.56269,-0.56224 -0.66973,-0.46302 -0.66973,-1.39733 0,-1.72805 1.62884,-2.46393 0.4961,-0.22324 1.5875,-0.52916 1.0914,-0.31419 1.56269,-0.52917 0.339,-0.14882 0.73587,-0.14882 0.35554,0 0.57878,0.23151 0.23151,0.23151 0.23151,0.60358 0,0.23977 0.0992,0.70279 0.10748,0.46302 0.10748,0.7028 0,0.37207 -0.23151,0.60358 -0.22324,0.23151 -0.57877,0.23151 z"
      id="path46"
      inkscape:label="matches"
    />
    <path
      style="
        display: inline;
        font-size: 16.9333px;
        fill: #616161;
        stroke: #a3a3a3;
        stroke-width: 0.2;
        stroke-linejoin: bevel;
        font-family: 'Comic Sans MS';
        -inkscape-font-specification: 'Comic Sans MS';
      "
      d="m 57.495823,166.63649 q -0.711067,0 -0.802017,-0.77721 l -0.23151,-1.81074 q -0.115755,-0.96738 -0.115755,-1.81074 0,-0.23151 0.02481,-0.78548 0.03307,-0.55397 0.03307,-0.78548 0,-1.78593 -0.661457,-1.78593 -0.92604,0 -1.769398,1.09967 -0.760676,1.00046 -1.190623,2.53007 -0.01654,0.32247 -0.07441,0.81029 -0.04961,0.41341 -0.04961,0.80202 0,0.24804 0.04961,0.74414 0.04961,0.49609 0.04961,0.74413 0,0.37207 -0.23151,0.60358 -0.223242,0.23151 -0.578775,0.23151 -0.363802,0 -0.587043,-0.23151 -0.223242,-0.23151 -0.223242,-0.60358 0,-0.24804 -0.05788,-0.74413 -0.04961,-0.4961 -0.04961,-0.74414 0,-0.85163 0.115755,-2.35644 0.124023,-1.51309 0.124023,-2.36471 0,-0.26459 -0.03307,-0.78548 -0.0248,-0.5209 -0.0248,-0.78548 0,-0.35554 0.23151,-0.57878 0.239778,-0.23151 0.587043,-0.23151 0.760676,0 0.835089,1.07487 l 0.02481,0.96738 q 1.38906,-1.85208 2.852534,-1.85208 1.322914,0 1.843811,1.16582 0.355533,0.77721 0.388606,2.29856 v 0.83509 l -0.0083,0.76894 q 0,0.68627 0.173632,1.77767 0.181901,1.08314 0.181901,1.76113 0,0.3638 -0.239778,0.58704 -0.23151,0.23151 -0.587043,0.23151 z m 5.622385,-0.0992 q -1.38906,0 -2.389514,-1.02525 -1.116209,-1.14102 -1.174086,-3.06751 -0.04961,-1.86862 0.942576,-3.29075 1.15755,-1.67845 3.224603,-1.67845 1.653643,0 2.505269,1.51309 0.677993,1.22369 0.653189,2.94348 -0.02481,1.83554 -0.959113,3.13365 -1.058331,1.47174 -2.802924,1.47174 z m 0.496092,-7.38351 q -1.215427,-0.008 -1.89342,1.15755 -0.537434,0.93431 -0.537434,2.1332 0,1.19889 0.653189,1.86862 0.545702,0.55397 1.281573,0.55397 0.859894,0 1.48001,-0.62839 0.702798,-0.69453 0.744139,-1.87688 0.115755,-3.1998 -1.728057,-3.20807 z m 8.408774,7.38351 q -1.38906,0 -2.389514,-1.02525 -1.116208,-1.14102 -1.174086,-3.06751 -0.04961,-1.86862 0.942576,-3.29075 1.15755,-1.67845 3.224603,-1.67845 1.653643,0 2.505269,1.51309 0.677993,1.22369 0.653189,2.94348 -0.02481,1.83554 -0.959113,3.13365 -1.058331,1.47174 -2.802924,1.47174 z m 0.496093,-7.38351 q -1.215428,-0.008 -1.893421,1.15755 -0.537434,0.93431 -0.537434,2.1332 0,1.19889 0.653189,1.86862 0.545702,0.55397 1.281573,0.55397 0.859894,0 1.48001,-0.62839 0.702798,-0.69453 0.744139,-1.87688 0.115755,-3.1998 -1.728056,-3.20807 z m 12.923216,-0.40514 q -0.09922,1.21543 -0.09922,2.43085 0,2.75332 0.256314,4.15891 0.01654,0.11576 0.01654,0.19017 0,0.33073 -0.23151,0.5457 -0.23151,0.21498 -0.537434,0.21498 -0.512629,0 -0.752407,-0.74414 -0.595312,0.43821 -1.240232,0.66146 -0.636653,0.22324 -1.331183,0.22324 -1.71152,0 -2.835997,-1.14102 -1.157549,-1.16581 -1.157549,-2.99309 0,-2.20761 1.165818,-3.53879 1.174086,-1.33119 3.042702,-1.33119 0.959113,0 1.48001,0.29766 l 0.777212,0.57051 q 0.115755,-3.48092 0.272851,-4.68808 0.107487,-0.73587 0.752408,-0.73587 0.752407,0 0.752407,0.80202 0,1.14928 -0.330729,5.07668 z m -3.671086,0.21497 q -1.38906,0 -2.08359,0.82682 -0.69453,0.81856 -0.69453,2.4722 0,1.0666 0.752408,1.83554 0.760675,0.76895 1.777665,0.76895 0.69453,0 1.174087,-0.25632 0.281119,-0.14883 0.917771,-0.68626 0.124024,-0.10749 0.239778,-0.25632 l -0.0248,-1.4304 0.0083,-0.95911 0.01654,-0.97565 q -0.314192,-0.66972 -0.835089,-1.00045 -0.520897,-0.339 -1.2485,-0.339 z m 8.102847,0.58704 -0.124023,4.10931 q 0,0.65319 -0.06614,1.91822 -0.08268,0.82682 -0.810285,0.82682 -0.810285,0 -0.810285,-0.84335 0,-1.00046 0.09095,-3.00137 0.09095,-2.00917 0.09095,-3.00963 0,-1.30637 0.04134,-2.98482 0.04134,-1.68672 0.04134,-2.99309 0,-0.82682 0.810285,-0.82682 0.818553,0 0.818553,0.82682 0,1.30637 -0.04134,2.99309 -0.04134,1.67845 -0.04134,2.98482 z m 6.399596,6.87916 q -1.868616,0 -3.026166,-0.93431 -1.265037,-1.03353 -1.265037,-2.89387 0,-2.14974 1.041795,-3.60495 1.132745,-1.58749 3.026166,-1.58749 1.372523,0 2.240686,0.46302 1.066599,0.5705 1.066599,1.75286 0,0.82682 -0.934308,1.50481 -0.413411,0.29766 -1.752861,0.92604 l -3.158457,1.49655 q 0.463019,0.68626 1.149281,1.03353 0.69453,0.34726 1.612302,0.34726 0.570506,0 1.33945,-0.21497 0.975649,-0.27285 1.256769,-0.71107 0.281119,-0.44648 0.603579,-0.44648 0.289388,0 0.512629,0.22324 0.231513,0.21497 0.231513,0.50436 0,0.91777 -1.480013,1.57923 -1.265036,0.56224 -2.463927,0.56224 z m -0.223242,-7.53234 q -1.008722,0 -1.678447,0.78548 -0.669726,0.77721 -1.000454,2.34817 l 2.538341,-1.20716 q 1.496547,-0.7276 2.133199,-1.26504 -0.711066,-0.66145 -1.992639,-0.66145 z m 11.219962,0.78548 q -0.45475,0 -0.63665,-0.30593 -0.12402,-0.21497 -0.21497,-0.89296 -0.62012,0.15709 -1.90996,0.57877 -1.33118,0.52917 -1.33945,1.30638 0.24805,0.0909 0.48782,0.13229 1.90169,0.339 2.82773,0.93431 1.34772,0.86816 1.34772,2.51353 0,1.34772 -1.16582,2.03398 -0.96738,0.56224 -2.44739,0.56224 -1.08313,0 -2.06705,-0.3638 -1.27331,-0.46302 -1.27331,-1.28984 0,-0.33073 0.25632,-0.57877 0.26458,-0.24805 0.59531,-0.24805 0.25632,0 0.66146,0.39687 0.19844,0.19017 0.89296,0.3142 0.55398,0.0992 0.93431,0.0992 0.69453,0 1.2237,-0.16536 0.76894,-0.23978 0.76894,-0.76068 0,-1.12447 -1.57096,-1.52135 l -0.85989,-0.19017 q -1.09967,-0.23977 -1.56269,-0.56223 -0.66973,-0.46302 -0.66973,-1.39733 0,-1.72806 1.62884,-2.46393 0.49609,-0.22324 1.5875,-0.52917 1.0914,-0.31419 1.56269,-0.52916 0.33899,-0.14883 0.73587,-0.14883 0.35553,0 0.57877,0.23151 0.23151,0.23151 0.23151,0.60358 0,0.23978 0.0992,0.7028 0.10749,0.46302 0.10749,0.7028 0,0.37207 -0.23151,0.60358 -0.22324,0.23151 -0.57878,0.23151 z"
      id="path47"
      inkscape:label="noodles"
    />
    <path
      style="
        display: inline;
        fill: #616161;
        fill-opacity: 1;
        stroke: #f40000;
        stroke-width: 2;
        stroke-linejoin: bevel;
        stroke-dasharray: none;
        stroke-opacity: 1;
        stroke-linecap: round;
      "
      d="m 47.405927,52.318459 c 7.614423,0 15.228848,0 22.84327,0 2.27329,0 4.611471,0.161861 6.877545,0 2.397826,-0.171275 4.717304,-0.245629 7.123168,-0.245629 0.795414,0 1.678053,-0.111172 2.456267,0 1.051422,0.150204 2.115497,0.371515 3.193145,0.491255 2.800625,0.311179 5.985156,0 8.842558,0 0.685654,0 1.53554,-0.13502 2.21064,0 1.04676,0.209351 2.31267,0.542271 3.19314,0.982506 0.52513,0.262562 3.15763,0 3.93003,0"
      id="path67"
      inkscape:label="cooker-strike"
    />
    <path
      style="
        display: inline;
        fill: #616161;
        fill-opacity: 1;
        stroke: #f40000;
        stroke-width: 2;
        stroke-linecap: round;
        stroke-linejoin: bevel;
        stroke-dasharray: none;
        stroke-opacity: 1;
      "
      d="m 49.370941,95.548732 c 3.356896,0 6.713791,0 10.070687,0 4.701582,0 1.237618,0.121867 4.912532,-0.245626 2.442112,-0.244211 5.013499,0.343199 7.368796,-0.245626 0.920732,-0.230183 2.036006,0.260432 2.94752,0 0.283847,-0.0811 0.450487,-0.419656 0.73688,-0.491252 1.268198,-0.31705 2.931284,0.414787 4.175652,0 0.36241,-0.120806 0.673491,-0.38825 0.982506,-0.491255 0.155347,-0.05178 0.335904,0.05178 0.491252,0 0.109847,-0.03661 0.133294,-0.217543 0.245626,-0.245626 0.64171,-0.160427 0.650597,0.144383 1.228135,0 0.890944,-0.222737 1.631468,-0.412398 2.456264,0 0.45855,0.229275 1.005832,0.02334 1.473759,0.491252"
      id="path68"
      inkscape:label="tent-strike"
    />
    <path
      style="
        display: inline;
        fill: #616161;
        fill-opacity: 1;
        stroke: #f40000;
        stroke-width: 1.95305;
        stroke-linecap: round;
        stroke-linejoin: bevel;
        stroke-dasharray: none;
        stroke-opacity: 1;
      "
      d="m 48.119444,118.661 c 3.98169,-0.31348 4.342571,-0.38071 9.138652,-0.50364 12.243987,-0.31387 24.536021,0 36.783064,0 3.428943,0 6.88714,0.16382 10.28098,-0.25183 0.87345,-0.10697 1.89206,0.23409 2.7416,0 0.39786,-0.10964 0.74018,-0.41499 1.14233,-0.50364 0.37338,-0.0823 0.76344,0.0417 1.14233,0 0.38639,-0.0427 0.75701,-0.19875 1.14233,-0.25183 1.47795,-0.20363 3.11024,0.32165 4.56933,0 0.16698,-0.0368 0.28995,-0.21501 0.45693,-0.25183 1.42569,-0.31428 5.09745,0 6.62552,0 2.20851,0 4.41702,0 6.62553,0 1.29507,0 2.80956,-0.1795 4.11238,0 4.1917,0.57753 -0.46899,-0.0663 1.59927,0.50366 0.57066,0.15725 1.2468,-0.10673 1.82773,0 1.28642,0.23631 2.59744,0.2673 3.88392,0.50364 1.17996,0.21676 2.48331,-0.2584 3.65546,0 0.5279,0.11637 0.87888,0.36809 1.3708,0.50364 0.50053,0.13793 1.36808,-0.25332 1.82773,0 0.56761,0.31282 1.14271,0.25183 1.82773,0.25183"
      id="path69"
      inkscape:label="sleeping bag-strike"
    />
    <path
      style="
        display: inline;
        fill: #616161;
        fill-opacity: 1;
        stroke: #f40000;
        stroke-width: 2;
        stroke-linecap: round;
        stroke-linejoin: bevel;
        stroke-dasharray: none;
        stroke-opacity: 1;
      "
      d="m 46.177795,140.98965 c 4.175652,0 8.351303,0 12.526955,0 7.532547,0 15.065094,0 22.597644,0 2.53814,0 5.07628,0 7.614423,0 1.100465,0 2.348491,0.15575 3.438771,0 1.079068,-0.15416 2.103694,-0.55531 3.193145,-0.73688 0.71764,-0.11961 1.489612,0.103 2.210638,0 2.056583,-0.2938 0.464937,-0.24563 1.965013,-0.24563 0.702746,0 2.009606,0.19779 2.701886,0 0.35207,-0.10059 0.63514,-0.37546 0.98251,-0.49125 1.2287,-0.40957 2.89094,0.21411 4.17565,0 2.04418,-0.3407 4.04547,-0.24563 6.14066,-0.24563 0.76103,0 1.71372,0.14851 2.45627,0 0.64095,-0.12819 1.07224,-0.24563 1.71938,-0.24563"
      id="path70"
      inkscape:label="matches-strike"
    />
  </g>
</svg>
