<?xml version="1.0" encoding="UTF-8" standalone="no"?>
<!-- Created with Inkscape (http://www.inkscape.org/) -->

<svg
   width="210mm"
   height="210mm"
   viewBox="0 0 210 210"
   version="1.1"
   id="svg1"
   xml:space="preserve"
   inkscape:version="1.4 (86a8ad7, 2024-10-11)"
   sodipodi:docname="logo.svg"
   xmlns:inkscape="http://www.inkscape.org/namespaces/inkscape"
   xmlns:sodipodi="http://sodipodi.sourceforge.net/DTD/sodipodi-0.dtd"
   xmlns="http://www.w3.org/2000/svg"
   xmlns:svg="http://www.w3.org/2000/svg"><sodipodi:namedview
     id="namedview1"
     pagecolor="#ffffff"
     bordercolor="#000000"
     borderopacity="0.25"
     inkscape:showpageshadow="2"
     inkscape:pageopacity="0.0"
     inkscape:pagecheckerboard="0"
     inkscape:deskcolor="#d1d1d1"
     inkscape:document-units="mm"
     inkscape:zoom="1.0771772"
     inkscape:cx="339.31279"
     inkscape:cy="395.94229"
     inkscape:window-width="1920"
     inkscape:window-height="1057"
     inkscape:window-x="-8"
     inkscape:window-y="-8"
     inkscape:window-maximized="1"
     inkscape:current-layer="svg1" /><defs
     id="defs1"><filter
       style="color-interpolation-filters:sRGB;"
       inkscape:label="Drop Shadow"
       id="filter38"
       x="-0.10961556"
       y="-0.092869632"
       width="1.2261524"
       height="1.1916031"><feFlood
         result="flood"
         in="SourceGraphic"
         flood-opacity="1.000000"
         flood-color="rgb(187,43,191)"
         id="feFlood37" /><feGaussianBlur
         result="blur"
         in="SourceGraphic"
         stdDeviation="5.000000"
         id="feGaussianBlur37" /><feOffset
         result="offset"
         in="blur"
         dx="1.000000"
         dy="1.000000"
         id="feOffset37" /><feComposite
         result="comp1"
         operator="in"
         in="offset"
         in2="flood"
         id="feComposite37" /><feComposite
         result="comp2"
         operator="over"
         in="SourceGraphic"
         in2="comp1"
         id="feComposite38" /></filter></defs><g
     inkscape:groupmode="layer"
     id="layer2"
     inkscape:label="Sheet"
     style="display:inline"><rect
       style="display:inline;fill:#ffffff;fill-opacity:1;stroke:#000000;stroke-width:7.67512;stroke-dasharray:none;stroke-opacity:1;filter:url(#filter38)"
       id="rect1"
       width="144.48277"
       height="170.5354"
       x="31.448088"
       y="18.248085"
       rx="28.68519"
       ry="28.878544" /><text
       xml:space="preserve"
       style="font-size:16.9333px;text-align:start;writing-mode:lr-tb;direction:ltr;text-anchor:start;fill:#616161;fill-opacity:1;stroke:#a3a3a3;stroke-width:0.2;stroke-linejoin:bevel;stroke-dasharray:none;stroke-opacity:1"
       x="50.004822"
       y="56.536625"
       id="text62"><tspan
         sodipodi:role="line"
         id="tspan62"
         style="font-style:normal;font-variant:normal;font-weight:normal;font-stretch:normal;font-size:16.9333px;font-family:'Comic Sans MS';-inkscape-font-specification:'Comic Sans MS';fill:#616161;fill-opacity:1;stroke:#a3a3a3;stroke-width:0.2;stroke-linejoin:bevel;stroke-dasharray:none;stroke-opacity:1"
         x="50.004822"
         y="56.536625">cooker</tspan><tspan
         sodipodi:role="line"
         style="font-style:normal;font-variant:normal;font-weight:normal;font-stretch:normal;font-size:16.9333px;font-family:'Comic Sans MS';-inkscape-font-specification:'Comic Sans MS';fill:#616161;fill-opacity:1;stroke:#a3a3a3;stroke-width:0.2;stroke-linejoin:bevel;stroke-dasharray:none;stroke-opacity:1"
         x="50.004822"
         y="78.439186"
         id="tspan63">lighter</tspan><tspan
         sodipodi:role="line"
         style="font-style:normal;font-variant:normal;font-weight:normal;font-stretch:normal;font-size:16.9333px;font-family:'Comic Sans MS';-inkscape-font-specification:'Comic Sans MS';fill:#616161;fill-opacity:1;stroke:#a3a3a3;stroke-width:0.2;stroke-linejoin:bevel;stroke-dasharray:none;stroke-opacity:1"
         x="50.004822"
         y="100.34175"
         id="tspan64">tent</tspan><tspan
         sodipodi:role="line"
         style="font-style:normal;font-variant:normal;font-weight:normal;font-stretch:normal;font-size:16.9333px;font-family:'Comic Sans MS';-inkscape-font-specification:'Comic Sans MS';fill:#616161;fill-opacity:1;stroke:#a3a3a3;stroke-width:0.2;stroke-linejoin:bevel;stroke-dasharray:none;stroke-opacity:1"
         x="50.004822"
         y="122.24432"
         id="tspan65">sleeping bag</tspan><tspan
         sodipodi:role="line"
         style="font-style:normal;font-variant:normal;font-weight:normal;font-stretch:normal;font-size:16.9333px;font-family:'Comic Sans MS';-inkscape-font-specification:'Comic Sans MS';fill:#616161;fill-opacity:1;stroke:#a3a3a3;stroke-width:0.2;stroke-linejoin:bevel;stroke-dasharray:none;stroke-opacity:1"
         x="50.004822"
         y="144.14688"
         id="tspan66">matches</tspan><tspan
         sodipodi:role="line"
         style="font-style:normal;font-variant:normal;font-weight:normal;font-stretch:normal;font-size:16.9333px;font-family:'Comic Sans MS';-inkscape-font-specification:'Comic Sans MS';fill:#616161;fill-opacity:1;stroke:#a3a3a3;stroke-width:0.2;stroke-linejoin:bevel;stroke-dasharray:none;stroke-opacity:1"
         x="50.004822"
         y="166.04945"
         id="tspan67">noodles</tspan></text><path
       style="fill:#616161;fill-opacity:1;stroke:#f40000;stroke-width:2;stroke-linejoin:bevel;stroke-dasharray:none;stroke-opacity:1;stroke-linecap:round"
       d="m 47.405927,52.318459 c 7.614423,0 15.228848,0 22.84327,0 2.27329,0 4.611471,0.161861 6.877545,0 2.397826,-0.171275 4.717304,-0.245629 7.123168,-0.245629 0.795414,0 1.678053,-0.111172 2.456267,0 1.051422,0.150204 2.115497,0.371515 3.193145,0.491255 2.800625,0.311179 5.985156,0 8.842558,0 0.685654,0 1.53554,-0.13502 2.21064,0 1.04676,0.209351 2.31267,0.542271 3.19314,0.982506 0.52513,0.262562 3.15763,0 3.93003,0"
       id="path67" /><path
       style="fill:#616161;fill-opacity:1;stroke:#f40000;stroke-width:2;stroke-linecap:round;stroke-linejoin:bevel;stroke-dasharray:none;stroke-opacity:1"
       d="m 49.370941,95.548732 c 3.356896,0 6.713791,0 10.070687,0 4.701582,0 1.237618,0.121867 4.912532,-0.245626 2.442112,-0.244211 5.013499,0.343199 7.368796,-0.245626 0.920732,-0.230183 2.036006,0.260432 2.94752,0 0.283847,-0.0811 0.450487,-0.419656 0.73688,-0.491252 1.268198,-0.31705 2.931284,0.414787 4.175652,0 0.36241,-0.120806 0.673491,-0.38825 0.982506,-0.491255 0.155347,-0.05178 0.335904,0.05178 0.491252,0 0.109847,-0.03661 0.133294,-0.217543 0.245626,-0.245626 0.64171,-0.160427 0.650597,0.144383 1.228135,0 0.890944,-0.222737 1.631468,-0.412398 2.456264,0 0.45855,0.229275 1.005832,0.02334 1.473759,0.491252"
       id="path68" /><path
       style="fill:#616161;fill-opacity:1;stroke:#f40000;stroke-width:1.95305;stroke-linecap:round;stroke-linejoin:bevel;stroke-dasharray:none;stroke-opacity:1"
       d="m 48.119444,118.661 c 3.98169,-0.31348 4.342571,-0.38071 9.138652,-0.50364 12.243987,-0.31387 24.536021,0 36.783064,0 3.428943,0 6.88714,0.16382 10.28098,-0.25183 0.87345,-0.10697 1.89206,0.23409 2.7416,0 0.39786,-0.10964 0.74018,-0.41499 1.14233,-0.50364 0.37338,-0.0823 0.76344,0.0417 1.14233,0 0.38639,-0.0427 0.75701,-0.19875 1.14233,-0.25183 1.47795,-0.20363 3.11024,0.32165 4.56933,0 0.16698,-0.0368 0.28995,-0.21501 0.45693,-0.25183 1.42569,-0.31428 5.09745,0 6.62552,0 2.20851,0 4.41702,0 6.62553,0 1.29507,0 2.80956,-0.1795 4.11238,0 4.1917,0.57753 -0.46899,-0.0663 1.59927,0.50366 0.57066,0.15725 1.2468,-0.10673 1.82773,0 1.28642,0.23631 2.59744,0.2673 3.88392,0.50364 1.17996,0.21676 2.48331,-0.2584 3.65546,0 0.5279,0.11637 0.87888,0.36809 1.3708,0.50364 0.50053,0.13793 1.36808,-0.25332 1.82773,0 0.56761,0.31282 1.14271,0.25183 1.82773,0.25183"
       id="path69" /><path
       style="fill:#616161;fill-opacity:1;stroke:#f40000;stroke-width:2;stroke-linecap:round;stroke-linejoin:bevel;stroke-dasharray:none;stroke-opacity:1"
       d="m 46.177795,140.98965 c 4.175652,0 8.351303,0 12.526955,0 7.532547,0 15.065094,0 22.597644,0 2.53814,0 5.07628,0 7.614423,0 1.100465,0 2.348491,0.15575 3.438771,0 1.079068,-0.15416 2.103694,-0.55531 3.193145,-0.73688 0.71764,-0.11961 1.489612,0.103 2.210638,0 2.056583,-0.2938 0.464937,-0.24563 1.965013,-0.24563 0.702746,0 2.009606,0.19779 2.701886,0 0.35207,-0.10059 0.63514,-0.37546 0.98251,-0.49125 1.2287,-0.40957 2.89094,0.21411 4.17565,0 2.04418,-0.3407 4.04547,-0.24563 6.14066,-0.24563 0.76103,0 1.71372,0.14851 2.45627,0 0.64095,-0.12819 1.07224,-0.24563 1.71938,-0.24563"
       id="path70" /></g></svg>
